Coordinates
version=1
nRows=8
nColumns=46
inDegrees=yes

Units are S.I. units (second, meters, Newtons, ...)
Angles are in degrees.

endheader
time	pelvis_tilt	pelvis_list	pelvis_rotation	pelvis_tx	pelvis_ty	pelvis_tz	bb_angle	bb_tx	bb_ty	bb_tz	hip_flexion_r	hip_adduction_r	hip_rotation_r	knee_angle_r	knee_angle_r_beta	ankle_angle_r	subtalar_angle_r	mtp_angle_r	crank_angle_r	hip_flexion_l	hip_adduction_l	hip_rotation_l	knee_angle_l	knee_angle_l_beta	ankle_angle_l	subtalar_angle_l	mtp_angle_l	crank_angle_l	lumbar_extension	lumbar_bending	lumbar_rotation	arm_flex_r	arm_add_r	arm_rot_r	elbow_flex_r	pro_sup_r	wrist_flex_r	wrist_dev_r	arm_flex_l	arm_add_l	arm_rot_l	elbow_flex_l	pro_sup_l	wrist_flex_l	wrist_dev_l
      0.00000000	    -13.06240175	     -4.58079696	     -2.94413092	      0.18886751	      1.04250412	     -0.31943521	      0.00000000	      0.50000000	      0.00000000	      0.25000000	     84.05144651	     -0.02008045	      1.33243161	     95.97751028	      1.67512356	     22.60656745	     -5.24400187	      0.00000000	      0.00000000	     46.16022022	    -12.39405858	     -0.87685020	     67.53224434	      1.17866002	     -2.34790874	     -7.50276499	      0.00000000	      0.00000000	    -57.16112537	      1.44111833	      7.68694113	     89.73561303	     -2.36789706	     41.21948623	     20.68465177	     21.65340240	      0.00000000	      0.00000000	     89.24748895	      2.27681922	     44.36446054	     16.31551948	     26.56592214	      0.00000000	      0.00000000
      0.00500000	    -13.05427864	     -4.57216608	     -2.92700303	      0.18886728	      1.04249336	     -0.31948290	      0.00000000	      0.50000000	      0.00000000	      0.25000000	     84.05506886	     -0.04649522	      1.32996297	     95.99563433	      1.67543989	     22.59358444	     -5.28360389	      0.00000000	      0.00000000	     46.15302292	    -12.37048537	     -0.86802637	     67.53341303	      1.17868041	     -2.33163321	     -7.49047405	      0.00000000	      0.00000000	    -57.18693419	      1.46580969	      7.64531996	     89.73484343	     -2.01946561	     39.39126124	     20.56894192	     22.06964805	      0.00000000	      0.00000000	     89.22843346	      2.34119052	     43.14475664	     16.44582306	     26.85879085	      0.00000000	      0.00000000
      0.01000000	    -13.03924864	     -4.57539476	     -2.90927015	      0.18886976	      1.04249896	     -0.31959610	      0.00000000	      0.50000000	      0.00000000	      0.25000000	     84.04179888	     -0.07759510	      1.32779047	     95.99835691	      1.67548740	     22.57464981	     -5.27431998	      0.00000000	      0.00000000	     46.13203992	    -12.34834293	     -0.85565179	     67.52665970	      1.17856254	     -2.32091703	     -7.52837377	      0.00000000	      0.00000000	    -57.21143975	      1.49314472	      7.66265099	     89.73522214	     -1.89878685	     38.52564694	     20.67001940	     22.02936742	      0.00000000	      0.00000000	     89.21914780	      2.45689563	     42.53667512	     16.58694667	     26.62195592	      0.00000000	      0.00000000
      0.01500000	    -13.09153417	     -4.59855703	     -2.92276268	      0.18880837	      1.04229540	     -0.31956184	      0.00000000	      0.50000000	      0.00000000	      0.25000000	     84.05488741	     -0.03739323	      1.34541749	     95.97009437	      1.67499413	     22.71449428	     -5.14508065	      0.00000000	      0.00000000	     46.22949047	    -12.39025288	     -0.84305549	     67.59785448	      1.17980513	     -2.28850641	     -7.45761116	      0.00000000	      0.00000000	    -57.10583317	      1.51022211	      7.66782313	     89.73605466	     -2.32622395	     41.33581446	     20.85523546	     20.20627677	      0.00000000	      0.00000000	     89.24916683	      2.10378187	     45.54452485	     16.35466865	     26.29186906	      0.00000000	      0.00000000
      0.02000000	    -12.99284840	     -4.64446040	     -2.96880403	      0.18877460	      1.04276791	     -0.31932319	      0.00000000	      0.50000000	      0.00000000	      0.25000000	     83.94672602	     -0.00104202	      1.27474631	     96.00049280	      1.67552468	     22.71390332	     -5.18068214	      0.00000000	      0.00000000	     46.06550614	    -12.46498034	     -0.86373645	     67.51178788	      1.17830298	     -2.31785941	     -7.52056020	      0.00000000	      0.00000000	    -57.26064368	      1.53071398	      7.73597041	     89.73571004	     -2.28569113	     40.46665872	     21.11500118	     20.69196558	      0.00000000	      0.00000000	     89.23124741	      2.05892753	     44.77115328	     16.67875484	     26.73619328	      0.00000000	      0.00000000
      0.02500000	    -13.08002222	     -4.63005460	     -2.98202842	      0.18875184	      1.04262150	     -0.31924306	      0.00000000	      0.50000000	      0.00000000	      0.25000000	     84.06142992	      0.00597457	      1.28903946	     96.01863824	      1.67584138	     22.63343357	     -5.26695438	      0.00000000	      0.00000000	     46.16261054	    -12.45382467	     -0.85170125	     67.52590749	      1.17854942	     -2.28684870	     -7.48305715	      0.00000000	      0.00000000	    -57.12229637	      1.52036198	      7.70967630	     89.73787027	     -2.26865048	     41.33939537	     20.75600281	     20.50468361	      0.00000000	      0.00000000	     89.24054224	      2.08865502	     45.18164914	     16.09516855	     27.54529616	      0.00000000	      0.00000000
      0.03000000	    -13.07186676	     -4.63158676	     -2.97750639	      0.18875457	      1.04265489	     -0.31926654	      0.00000000	      0.50000000	      0.00000000	      0.25000000	     84.05535011	     -0.00709690	      1.28863811	     96.02731440	      1.67599281	     22.63045875	     -5.23648285	      0.00000000	      0.00000000	     46.14752114	    -12.44054249	     -0.84302436	     67.51077792	      1.17828536	     -2.30750678	     -7.51463041	      0.00000000	      0.00000000	    -57.14506431	      1.53869393	      7.68897188	     89.73651525	     -2.00153414	     39.75465125	     20.55869244	     21.85748135	      0.00000000	      0.00000000	     89.23488009	      2.29038933	     43.60888568	     15.86770578	     28.40542613	      0.00000000	      0.00000000
      0.03500000	    -13.07987281	     -4.67790578	     -2.94520989	      0.18873518	      1.04263166	     -0.31929744	      0.00000000	      0.50000000	      0.00000000	      0.25000000	     84.05986484	     -0.03427119	      1.22681549	     96.03048917	      1.67604822	     22.64132473	     -5.26862018	      0.00000000	      0.00000000	     46.17297383	    -12.45920437	     -0.78586385	     67.51755506	      1.17840364	     -2.28880965	     -7.52007669	      0.00000000	      0.00000000	    -57.12713774	      1.59660526	      7.73985139	     89.73851315	     -2.30515906	     41.38634473	     20.73062234	     20.92089280	      0.00000000	      0.00000000	     89.23966684	      2.15944969	     44.81073773	     16.04325312	     27.30705701	      0.00000000	      0.00000000
